<svg id="svg" version="1.1" xmlns="http://www.w3.org/2000/svg" xmlns:xlink="http://www.w3.org/1999/xlink" width="400" height="400" viewBox="0, 0, 400,400"><g id="svgg"><path id="path0" d="M104.789 96.020 C 104.307 96.920,104.745 97.579,105.837 97.594 C 106.077 97.597,106.707 97.965,107.237 98.412 C 108.587 99.549,111.307 101.629,112.876 102.724 C 116.102 104.974,118.304 106.711,119.651 108.067 C 120.449 108.871,121.642 109.808,122.303 110.150 C 122.963 110.491,123.609 111.047,123.739 111.385 C 123.869 111.723,124.218 112.000,124.515 112.000 C 124.813 112.000,125.422 112.405,125.869 112.900 C 126.317 113.395,127.218 114.089,127.873 114.442 C 129.238 115.179,134.000 120.552,134.000 121.356 C 134.000 121.651,134.380 122.375,134.844 122.965 C 136.345 124.873,136.424 130.192,136.310 221.218 C 136.201 308.297,136.193 309.045,135.400 310.179 C 134.960 310.808,134.240 311.896,133.800 312.598 C 131.787 315.806,131.108 316.679,129.749 317.800 C 128.950 318.460,127.734 319.462,127.048 320.027 C 126.361 320.591,124.900 321.667,123.800 322.418 C 122.700 323.169,120.864 324.558,119.720 325.505 C 118.576 326.453,117.091 327.419,116.420 327.653 C 115.749 327.887,115.200 328.238,115.200 328.432 C 115.200 328.627,114.276 329.285,113.146 329.893 C 109.506 331.855,108.972 332.186,108.142 333.000 C 107.693 333.440,106.718 334.160,105.977 334.600 C 105.235 335.040,104.244 335.670,103.774 336.000 C 103.304 336.330,102.397 336.944,101.760 337.364 C 101.122 337.784,99.960 338.549,99.178 339.064 C 98.397 339.579,97.553 340.000,97.303 340.000 C 96.551 340.000,94.195 342.363,94.616 342.696 C 94.827 342.863,136.670 342.949,187.600 342.887 L 280.200 342.774 281.461 340.887 C 282.154 339.849,282.847 338.370,283.000 337.600 C 283.153 336.830,283.538 335.791,283.855 335.291 C 284.171 334.791,284.615 333.384,284.840 332.165 C 285.066 330.946,285.689 329.123,286.225 328.114 C 286.761 327.106,287.200 325.893,287.200 325.418 C 287.200 324.944,287.650 323.945,288.200 323.200 C 288.750 322.455,289.200 321.364,289.200 320.776 C 289.200 320.189,289.545 319.269,289.967 318.733 C 290.389 318.197,291.009 316.704,291.345 315.416 C 291.682 314.128,292.141 312.960,292.367 312.821 C 292.592 312.681,293.056 311.774,293.399 310.804 C 293.741 309.833,294.271 308.761,294.577 308.420 C 294.882 308.079,295.258 307.123,295.411 306.297 C 295.565 305.470,296.016 304.379,296.414 303.874 C 296.811 303.368,297.346 301.794,297.602 300.377 C 297.857 298.960,298.303 297.530,298.593 297.200 C 298.883 296.870,299.302 295.930,299.525 295.111 C 299.747 294.293,300.283 293.123,300.716 292.511 C 301.148 291.900,301.637 290.590,301.800 289.600 C 301.964 288.610,302.436 287.170,302.848 286.400 C 303.261 285.630,303.873 284.370,304.210 283.600 C 304.546 282.830,305.084 281.750,305.405 281.200 C 305.726 280.650,305.991 279.615,305.994 278.900 C 305.998 278.141,306.332 277.268,306.798 276.802 C 307.237 276.363,307.787 275.148,308.020 274.102 C 308.253 273.056,308.742 271.750,309.105 271.200 C 309.556 270.518,309.840 268.927,309.998 266.200 C 310.166 263.311,310.492 261.572,311.173 259.939 C 312.475 256.813,310.830 255.139,309.109 257.839 C 308.950 258.090,308.275 258.521,307.609 258.796 C 306.944 259.072,306.400 259.465,306.400 259.671 C 306.400 259.877,305.590 260.403,304.600 260.841 C 303.610 261.279,302.800 261.776,302.800 261.945 C 302.800 262.114,302.215 262.559,301.500 262.935 C 300.049 263.698,297.881 265.190,296.466 266.401 C 295.952 266.840,295.346 267.200,295.119 267.200 C 294.892 267.200,294.113 267.695,293.388 268.300 C 292.664 268.905,291.418 269.850,290.619 270.400 C 288.933 271.562,286.629 273.229,285.200 274.322 C 284.650 274.743,283.750 275.228,283.200 275.399 C 282.650 275.570,281.691 276.135,281.069 276.655 C 280.447 277.175,279.696 277.600,279.400 277.600 C 279.104 277.600,278.327 278.050,277.673 278.600 C 277.019 279.150,276.366 279.600,276.221 279.600 C 276.076 279.600,275.295 280.050,274.486 280.600 C 273.677 281.150,272.765 281.600,272.460 281.600 C 272.155 281.600,271.291 282.140,270.539 282.800 C 269.787 283.460,268.916 284.000,268.604 284.000 C 268.291 284.000,267.372 284.450,266.562 285.000 C 265.751 285.550,264.686 286.000,264.193 286.000 C 263.701 286.000,263.072 286.272,262.797 286.604 C 262.521 286.936,261.284 287.497,260.048 287.851 C 258.811 288.204,257.503 288.754,257.140 289.072 C 256.777 289.391,255.552 289.896,254.418 290.195 C 253.283 290.495,252.140 290.918,251.877 291.136 C 251.615 291.353,249.886 291.819,248.037 292.169 C 246.187 292.520,244.433 293.006,244.140 293.250 C 241.724 295.255,214.493 295.090,206.837 293.023 C 205.647 292.702,202.965 292.314,200.877 292.160 C 196.487 291.838,195.793 291.402,195.411 288.729 C 195.275 287.778,195.217 251.240,195.282 207.533 L 195.400 128.067 196.237 126.933 C 196.697 126.310,197.296 125.125,197.568 124.300 C 197.840 123.475,198.237 122.800,198.451 122.800 C 198.666 122.800,199.109 122.215,199.438 121.500 C 200.502 119.182,202.321 116.758,205.717 113.132 C 206.771 112.006,207.812 110.751,208.031 110.342 C 208.249 109.934,208.692 109.600,209.014 109.600 C 209.336 109.600,209.600 109.336,209.600 109.014 C 209.600 108.692,209.917 108.258,210.305 108.051 C 211.385 107.473,214.000 104.908,214.000 104.427 C 214.000 104.192,214.165 104.000,214.366 104.000 C 214.567 104.000,215.242 103.460,215.865 102.800 C 216.488 102.140,217.137 101.600,217.307 101.600 C 217.478 101.600,218.527 100.700,219.638 99.600 C 220.750 98.500,222.075 97.496,222.584 97.368 C 223.255 97.200,223.453 96.926,223.308 96.368 C 223.111 95.615,221.964 95.600,164.786 95.600 C 132.710 95.600,106.195 95.496,105.863 95.369 C 105.493 95.227,105.079 95.478,104.789 96.020 " stroke="none" fill="#fbf9fb" fill-rule="evenodd"></path><path id="path1" d="M198.010 19.987 C 197.245 20.179,196.453 20.232,196.248 20.106 C 196.044 19.980,195.978 20.041,196.103 20.243 C 196.500 20.885,195.402 21.927,194.181 22.066 C 193.312 22.164,192.966 22.438,192.872 23.100 C 192.782 23.738,192.474 24.000,191.815 24.000 C 191.304 24.000,190.782 24.270,190.655 24.600 C 190.529 24.930,190.194 25.197,189.913 25.194 C 189.549 25.190,189.575 25.064,190.000 24.763 C 190.533 24.386,190.533 24.358,190.000 24.511 C 189.670 24.606,189.454 24.982,189.519 25.348 C 189.584 25.713,189.494 25.988,189.319 25.959 C 189.144 25.929,188.820 25.946,188.600 25.995 C 188.380 26.045,187.840 26.111,187.400 26.143 C 186.921 26.177,186.553 26.531,186.482 27.026 C 186.406 27.555,185.860 28.034,184.965 28.358 C 184.196 28.636,183.351 29.209,183.087 29.632 C 182.802 30.088,182.159 30.400,181.504 30.400 C 180.593 30.400,180.400 30.575,180.400 31.400 C 180.400 32.252,180.216 32.400,179.157 32.400 C 178.038 32.400,177.938 32.498,178.159 33.378 C 178.391 34.302,178.298 34.363,176.502 34.478 C 174.989 34.575,174.521 34.781,174.212 35.484 C 173.999 35.970,173.459 36.420,173.012 36.484 C 172.521 36.554,172.149 36.956,172.072 37.500 C 172.002 37.995,171.822 38.413,171.672 38.429 C 171.522 38.446,170.739 38.516,169.931 38.586 C 168.031 38.752,167.513 39.096,167.802 40.005 C 167.986 40.587,167.798 40.771,166.918 40.872 C 166.112 40.964,165.764 41.251,165.672 41.900 C 165.555 42.728,163.853 43.156,161.900 42.847 C 161.735 42.821,161.621 42.935,161.647 43.100 C 161.831 44.262,161.513 44.800,160.643 44.800 C 159.692 44.800,158.992 45.739,159.422 46.436 C 159.546 46.636,159.052 46.827,158.324 46.861 C 157.596 46.894,156.820 46.964,156.600 47.015 C 156.380 47.066,155.964 47.128,155.676 47.154 C 155.388 47.179,155.254 47.364,155.378 47.564 C 155.812 48.267,155.111 49.270,154.328 49.065 C 153.739 48.911,153.514 49.130,153.333 50.033 C 153.111 51.143,151.640 51.604,149.481 51.241 C 149.306 51.212,149.192 51.415,149.228 51.694 C 149.384 52.881,149.135 53.200,148.055 53.200 C 147.071 53.200,146.925 53.341,147.020 54.200 C 147.135 55.249,147.282 55.195,143.837 55.377 C 143.417 55.400,143.026 55.745,142.967 56.146 C 142.835 57.046,142.787 57.092,141.800 57.262 C 141.325 57.344,140.917 57.806,140.797 58.400 C 140.626 59.238,140.343 59.414,139.055 59.485 C 137.320 59.581,136.347 60.196,136.655 61.000 C 136.794 61.361,136.487 61.584,135.731 61.670 C 134.912 61.764,134.565 62.048,134.472 62.700 C 134.373 63.402,134.064 63.613,133.072 63.661 C 132.372 63.694,131.530 63.739,131.200 63.761 C 130.870 63.782,130.545 64.184,130.478 64.654 C 130.394 65.242,129.980 65.584,129.152 65.750 C 128.449 65.890,128.056 66.166,128.208 66.413 C 128.531 66.936,127.643 68.074,127.150 67.769 C 126.952 67.647,126.249 67.816,125.588 68.146 C 124.927 68.476,124.507 68.550,124.655 68.311 C 124.819 68.046,124.737 67.992,124.446 68.172 C 124.183 68.334,124.077 68.812,124.211 69.234 C 124.414 69.875,124.254 70.000,123.227 70.000 C 122.185 70.000,122.000 70.151,122.000 71.000 C 122.000 71.849,121.804 72.009,120.700 72.061 C 119.985 72.094,119.130 72.140,118.800 72.161 C 118.470 72.183,118.178 72.426,118.150 72.701 C 118.123 72.975,118.078 73.380,118.050 73.600 C 118.022 73.820,117.460 74.000,116.800 74.000 C 116.140 74.000,115.621 74.135,115.647 74.300 C 115.827 75.440,115.511 76.000,114.689 76.000 C 114.188 76.000,113.348 76.301,112.823 76.669 C 112.227 77.087,111.991 77.139,112.195 76.807 C 112.421 76.443,112.370 76.371,112.035 76.579 C 111.766 76.745,111.636 77.118,111.747 77.407 C 111.959 77.959,110.963 78.548,110.403 78.202 C 110.224 78.091,109.890 78.541,109.660 79.200 C 109.301 80.230,109.040 80.400,107.821 80.400 C 107.039 80.400,106.400 80.591,106.400 80.824 C 106.400 81.057,106.208 81.129,105.973 80.983 C 105.718 80.826,105.597 81.012,105.673 81.447 C 105.767 81.982,105.483 82.231,104.600 82.390 C 103.744 82.543,103.363 82.863,103.272 83.503 C 103.189 84.086,102.868 84.400,102.355 84.400 C 101.922 84.400,101.169 84.786,100.683 85.259 C 100.197 85.731,100.053 85.973,100.362 85.797 C 100.747 85.577,100.830 85.628,100.626 85.958 C 100.397 86.329,100.182 86.320,99.688 85.919 C 99.273 85.583,99.147 85.567,99.331 85.874 C 99.522 86.193,99.188 86.389,98.308 86.474 C 97.588 86.543,97.075 86.690,97.168 86.800 C 97.399 87.076,96.443 88.802,96.088 88.749 C 95.157 88.608,94.389 88.858,94.617 89.227 C 94.775 89.483,94.584 89.603,94.140 89.527 C 93.632 89.440,93.435 89.611,93.512 90.074 C 93.594 90.572,93.281 90.780,92.312 90.874 C 91.303 90.971,90.970 91.208,90.872 91.900 C 90.774 92.594,90.482 92.800,89.601 92.800 C 88.870 92.800,88.185 93.147,87.701 93.763 C 87.284 94.292,86.506 94.787,85.972 94.863 C 85.437 94.938,84.825 95.398,84.612 95.884 C 84.399 96.370,83.859 96.820,83.412 96.884 C 82.875 96.961,82.559 97.351,82.480 98.036 C 82.369 98.984,82.204 99.071,80.553 99.056 C 78.729 99.040,77.881 99.625,78.268 100.634 C 78.391 100.954,78.047 101.188,77.331 101.270 C 76.512 101.364,76.165 101.648,76.072 102.300 C 75.959 103.096,75.714 103.200,73.955 103.200 C 72.595 103.200,71.985 103.358,72.030 103.700 C 72.180 104.857,71.945 105.200,71.000 105.200 C 70.200 105.200,70.000 105.400,70.000 106.200 C 70.000 107.049,69.804 107.209,68.700 107.261 C 67.985 107.294,67.220 107.364,67.000 107.415 C 66.780 107.466,66.364 107.528,66.076 107.554 C 65.788 107.579,65.654 107.764,65.778 107.964 C 66.082 108.456,65.598 109.646,65.194 109.396 C 64.534 108.988,63.600 109.718,63.600 110.643 C 63.600 111.525,63.443 111.600,61.600 111.600 C 59.733 111.600,59.600 111.667,59.600 112.600 C 59.600 113.427,59.408 113.600,58.485 113.600 C 57.637 113.600,57.355 113.802,57.307 114.445 C 57.224 115.548,57.278 115.515,55.196 115.707 C 53.726 115.842,53.377 116.029,53.272 116.736 C 53.161 117.488,52.534 117.811,51.500 117.647 C 51.335 117.621,51.200 118.031,51.200 118.557 C 51.200 119.602,50.542 120.000,48.816 120.000 C 47.633 120.000,46.567 120.899,46.972 121.555 C 47.105 121.770,46.716 122.003,46.107 122.073 C 45.312 122.164,44.964 122.454,44.872 123.100 C 44.750 123.963,44.022 124.194,41.700 124.107 C 41.259 124.091,41.012 124.810,41.153 125.700 C 41.179 125.865,40.795 126.003,40.300 126.006 C 39.066 126.015,38.567 126.446,38.631 127.448 C 38.672 128.077,38.501 128.247,37.969 128.108 C 36.617 127.754,34.461 128.746,34.689 129.617 C 34.859 130.271,34.687 130.400,33.647 130.400 C 32.584 130.400,32.400 130.547,32.400 131.400 C 32.400 132.249,32.204 132.409,31.100 132.461 C 30.385 132.494,29.530 132.540,29.200 132.561 C 28.870 132.583,28.578 132.826,28.550 133.101 C 28.523 133.375,28.477 133.780,28.450 134.000 C 28.423 134.220,27.953 134.400,27.408 134.400 C 26.683 134.400,26.348 134.669,26.164 135.400 C 25.977 136.145,25.644 136.404,24.857 136.414 C 23.519 136.432,22.200 137.220,22.200 138.000 C 22.200 138.372,21.820 138.602,21.200 138.606 C 20.410 138.610,20.173 138.840,20.073 139.706 C 19.973 140.576,19.728 140.812,18.873 140.859 C 18.283 140.892,17.501 140.937,17.136 140.959 C 16.771 140.982,16.321 141.164,16.136 141.364 C 15.936 141.581,16.043 141.593,16.400 141.395 C 16.798 141.174,16.750 141.347,16.258 141.909 C 15.850 142.374,15.130 142.810,14.658 142.878 C 14.121 142.954,13.752 143.337,13.672 143.900 C 13.581 144.544,13.275 144.800,12.596 144.800 C 12.074 144.800,11.528 144.992,11.383 145.227 C 11.238 145.462,10.858 145.554,10.539 145.432 C 10.215 145.307,10.066 145.384,10.203 145.605 C 10.337 145.822,10.246 146.000,10.000 146.000 C 9.754 146.000,9.664 146.180,9.800 146.400 C 10.050 146.804,9.902 146.859,8.338 146.950 C 7.820 146.980,7.432 147.303,7.365 147.760 C 7.246 148.570,6.429 149.265,5.947 148.967 C 5.786 148.868,5.540 148.973,5.400 149.200 C 5.260 149.427,4.977 149.509,4.772 149.383 C 4.568 149.256,4.400 149.354,4.400 149.600 C 4.400 149.846,4.202 149.925,3.960 149.775 C 3.648 149.583,3.637 149.721,3.920 150.252 C 4.258 150.882,4.169 151.009,3.359 151.058 C 1.803 151.151,1.200 151.522,1.200 152.387 C 1.200 152.843,0.936 153.200,0.600 153.200 C 0.097 153.200,0.000 154.044,0.000 158.400 C 0.000 162.756,0.097 163.600,0.600 163.600 C 1.061 163.600,1.212 164.156,1.250 166.000 C 1.321 169.424,1.310 169.387,2.300 169.528 C 3.125 169.645,3.200 169.866,3.200 172.195 C 3.200 175.251,3.445 176.000,4.443 176.000 C 5.087 176.000,5.209 176.329,5.260 178.200 C 5.293 179.410,5.338 180.625,5.360 180.900 C 5.382 181.175,5.864 181.693,6.431 182.052 C 7.290 182.596,7.442 182.957,7.342 184.225 C 7.276 185.061,7.442 186.017,7.711 186.349 C 8.115 186.848,8.095 186.891,7.600 186.594 C 7.116 186.304,7.129 186.425,7.668 187.217 C 8.035 187.758,8.530 188.155,8.768 188.100 C 9.006 188.045,9.233 188.405,9.274 188.900 C 9.314 189.395,9.387 190.160,9.434 190.600 C 9.482 191.040,9.539 191.955,9.561 192.632 C 9.589 193.514,9.885 194.017,10.600 194.400 C 11.491 194.877,11.600 195.189,11.600 197.268 C 11.600 198.643,11.774 199.600,12.024 199.600 C 12.257 199.600,12.328 199.792,12.183 200.027 C 12.038 200.262,12.297 200.553,12.760 200.674 C 13.467 200.859,13.600 201.199,13.600 202.823 C 13.600 203.884,13.783 204.866,14.007 205.004 C 14.230 205.142,14.291 205.453,14.141 205.696 C 13.962 205.986,14.115 206.042,14.591 205.859 C 15.229 205.614,15.249 205.661,14.757 206.266 C 14.266 206.868,14.284 206.918,14.900 206.687 C 15.507 206.460,15.600 206.685,15.600 208.380 C 15.600 210.849,15.890 211.600,16.843 211.600 C 17.259 211.600,17.616 211.825,17.635 212.100 C 17.654 212.375,17.699 213.678,17.735 214.996 C 17.795 217.208,17.877 217.408,18.800 217.596 C 19.566 217.752,19.806 218.057,19.825 218.900 C 19.941 223.991,19.943 224.000,21.000 224.000 C 21.978 224.000,22.000 224.067,22.000 227.000 C 22.000 228.700,22.173 230.022,22.400 230.050 C 22.620 230.078,23.025 230.123,23.300 230.150 C 23.626 230.183,23.870 231.174,24.000 233.000 C 24.173 235.420,24.322 235.854,25.100 236.195 C 25.885 236.539,26.000 236.887,26.000 238.921 C 26.000 241.330,26.556 242.998,27.221 242.587 C 27.780 242.242,28.298 243.962,28.189 245.800 C 28.074 247.754,28.570 248.800,29.614 248.800 C 30.317 248.800,30.401 249.085,30.406 251.500 C 30.413 254.467,30.784 255.445,31.760 255.071 C 32.324 254.854,32.773 258.387,32.450 260.493 C 32.425 260.654,32.854 260.899,33.402 261.036 C 34.329 261.269,34.401 261.463,34.413 263.743 C 34.425 266.075,35.214 268.097,35.917 267.600 C 36.073 267.490,36.316 268.390,36.458 269.600 C 36.822 272.698,37.015 273.400,37.505 273.400 C 38.199 273.400,38.304 273.680,38.541 276.139 C 38.761 278.421,39.374 279.787,40.003 279.398 C 40.490 279.097,40.800 280.278,40.800 282.433 C 40.800 284.264,40.869 284.400,41.800 284.400 C 42.763 284.400,42.800 284.496,42.800 286.967 C 42.800 289.607,43.074 290.925,43.561 290.624 C 44.336 290.145,44.773 291.268,44.840 293.913 C 44.909 296.659,44.958 296.800,45.856 296.800 C 46.556 296.800,46.811 297.033,46.842 297.700 C 46.865 298.195,46.916 299.590,46.957 300.800 C 47.022 302.738,47.136 303.015,47.915 303.128 C 48.402 303.198,48.820 303.558,48.845 303.928 C 48.869 304.298,48.943 305.320,49.008 306.200 C 49.073 307.080,49.143 308.115,49.163 308.500 C 49.188 308.967,49.527 309.200,50.182 309.200 C 51.125 309.200,51.170 309.319,51.282 312.100 C 51.386 314.666,51.504 315.046,52.300 315.395 C 53.115 315.753,53.200 316.065,53.200 318.718 C 53.200 320.329,53.353 321.552,53.541 321.436 C 54.449 320.876,55.151 322.293,55.307 325.000 C 55.451 327.505,55.559 327.813,56.334 327.928 C 56.810 327.998,57.208 328.178,57.218 328.328 C 57.228 328.478,57.305 329.766,57.388 331.190 C 57.472 332.615,57.737 333.846,57.978 333.926 C 58.987 334.262,59.529 335.290,59.543 336.893 C 59.566 339.526,59.797 340.189,60.736 340.328 C 61.518 340.444,61.600 340.698,61.600 343.028 C 61.600 344.572,61.769 345.600,62.024 345.600 C 62.257 345.600,62.318 345.825,62.159 346.100 C 62.001 346.375,62.019 346.467,62.199 346.303 C 62.928 345.643,63.600 346.961,63.600 349.049 C 63.600 350.296,63.778 351.200,64.024 351.200 C 64.257 351.200,64.344 351.368,64.217 351.573 C 64.090 351.778,64.338 352.192,64.768 352.493 C 65.326 352.884,65.585 353.606,65.675 355.020 C 65.783 356.723,65.926 357.018,66.700 357.128 C 67.478 357.238,67.607 357.510,67.652 359.128 C 67.770 363.366,67.775 363.386,68.814 363.599 C 69.498 363.738,69.809 364.076,69.829 364.700 C 69.991 369.829,69.937 369.600,71.000 369.600 C 71.983 369.600,72.000 369.653,72.000 372.800 C 72.000 375.947,72.017 376.000,73.000 376.000 C 73.800 376.000,74.000 376.200,74.000 377.000 L 74.000 378.000 199.757 378.000 C 314.062 378.000,325.537 377.942,325.757 377.367 C 325.891 377.019,326.000 375.569,326.000 374.144 C 326.000 372.690,326.160 371.651,326.364 371.778 C 327.495 372.477,328.000 371.483,328.000 368.557 C 328.000 365.670,328.024 365.600,329.000 365.600 C 329.550 365.600,330.023 365.420,330.050 365.200 C 330.078 364.980,330.145 364.620,330.200 364.400 C 330.255 364.180,330.322 362.933,330.350 361.628 C 330.395 359.490,330.489 359.243,331.300 359.128 C 332.084 359.016,332.216 358.729,332.321 356.900 C 332.409 355.372,332.602 354.800,333.031 354.800 C 333.836 354.800,334.400 353.143,334.400 350.774 C 334.400 349.067,334.508 348.800,335.200 348.800 C 335.640 348.800,336.023 348.620,336.050 348.400 C 336.078 348.180,336.145 347.820,336.200 347.600 C 336.255 347.380,336.322 346.213,336.350 345.008 C 336.395 343.021,336.494 342.792,337.400 342.564 C 338.354 342.325,338.400 342.177,338.400 339.357 C 338.400 336.419,338.484 336.251,339.855 336.434 C 340.398 336.507,340.685 335.449,340.755 333.111 C 340.831 330.568,341.034 329.850,341.582 330.189 C 341.894 330.382,343.109 329.228,342.900 328.939 C 342.263 328.056,342.904 324.041,343.700 323.928 C 344.440 323.823,344.619 323.515,344.707 322.200 C 344.864 319.831,345.175 318.737,345.612 319.008 C 346.175 319.355,346.800 317.436,346.800 315.364 C 346.800 313.829,346.940 313.527,347.800 313.200 C 348.736 312.844,348.800 312.639,348.800 310.010 C 348.800 308.437,348.976 307.178,349.200 307.150 C 349.420 307.123,349.823 307.078,350.096 307.050 C 350.661 306.993,351.083 305.360,351.153 302.964 C 351.192 301.620,351.383 301.245,352.225 300.862 C 352.817 300.592,353.220 300.100,353.179 299.697 C 352.876 296.710,353.220 294.853,354.100 294.728 C 354.932 294.610,355.009 294.368,355.116 291.526 C 355.223 288.701,355.304 288.441,356.116 288.326 C 356.871 288.218,357.018 287.912,357.125 286.220 C 357.217 284.765,357.508 283.983,358.225 283.266 C 359.016 282.475,359.200 281.886,359.200 280.145 C 359.200 278.699,359.363 277.998,359.700 277.994 C 360.849 277.980,361.244 277.215,361.473 274.566 C 361.696 271.969,362.138 270.991,362.881 271.450 C 363.056 271.558,363.227 271.412,363.261 271.124 C 363.294 270.836,363.364 270.420,363.415 270.200 C 363.466 269.980,363.528 268.868,363.554 267.728 C 363.595 265.900,363.706 265.641,364.500 265.528 C 365.333 265.410,365.409 265.169,365.517 262.300 C 365.630 259.306,365.667 259.200,366.617 259.200 C 367.574 259.200,367.600 259.120,367.600 256.200 C 367.600 253.267,367.622 253.200,368.600 253.200 C 369.543 253.200,369.600 253.077,369.600 251.042 C 369.600 249.197,369.774 248.699,370.800 247.600 C 371.787 246.544,372.000 245.976,372.000 244.404 C 372.000 242.791,372.133 242.459,372.852 242.271 C 373.421 242.122,373.624 241.841,373.465 241.424 C 373.333 241.081,373.399 240.800,373.613 240.800 C 373.826 240.800,374.000 239.853,374.000 238.695 C 374.000 236.895,374.131 236.532,374.900 236.195 C 375.686 235.850,375.815 235.457,375.918 233.104 C 376.033 230.485,376.888 229.021,377.781 229.914 C 377.938 230.071,378.030 230.020,377.986 229.800 C 377.682 228.294,378.062 223.999,378.500 223.994 C 379.949 223.976,380.319 223.132,380.369 219.728 C 380.396 217.894,380.504 217.641,381.300 217.528 C 382.290 217.387,382.279 217.424,382.350 214.000 C 382.386 212.252,382.550 211.600,382.951 211.600 C 383.894 211.600,384.349 210.655,384.448 208.490 C 384.520 206.905,384.765 206.196,385.471 205.533 C 386.190 204.857,386.400 204.231,386.400 202.758 C 386.400 201.090,386.511 200.840,387.300 200.728 C 388.121 200.611,388.218 200.335,388.400 197.600 C 388.568 195.080,388.707 194.618,389.270 194.711 C 390.319 194.884,390.707 193.601,390.777 189.728 C 390.795 188.722,390.988 188.429,391.700 188.328 C 392.514 188.212,392.611 187.952,392.711 185.600 C 392.850 182.345,392.896 182.204,393.833 182.202 C 394.513 182.200,394.613 181.848,394.717 179.100 C 394.830 176.106,394.867 176.000,395.817 176.000 C 396.736 176.000,396.800 175.864,396.800 173.896 C 396.800 172.212,396.963 171.691,397.616 171.283 C 398.064 171.003,398.323 170.600,398.192 170.387 C 398.060 170.174,398.143 170.000,398.376 170.000 C 398.623 170.000,398.800 169.082,398.800 167.800 C 398.800 166.111,398.939 165.600,399.400 165.600 C 399.907 165.600,400.000 164.667,400.000 159.605 L 400.000 153.609 398.400 153.354 C 397.185 153.159,396.800 152.915,396.800 152.339 C 396.800 151.814,396.426 151.505,395.585 151.337 C 394.834 151.187,394.161 150.694,393.821 150.047 C 393.520 149.471,393.166 149.045,393.036 149.100 C 392.906 149.155,392.710 149.178,392.600 149.150 C 392.490 149.123,392.220 149.055,392.000 149.000 C 391.780 148.945,391.440 148.878,391.243 148.850 C 391.047 148.823,390.776 148.360,390.642 147.823 C 390.467 147.129,390.173 146.890,389.624 146.995 C 389.199 147.077,388.638 146.887,388.377 146.572 C 388.116 146.257,388.048 146.000,388.227 146.000 C 388.406 146.000,388.204 145.736,387.776 145.413 C 387.349 145.090,386.415 144.820,385.700 144.813 C 384.593 144.802,384.400 144.656,384.400 143.827 C 384.400 143.066,384.163 142.825,383.316 142.727 C 382.568 142.639,382.165 142.314,382.016 141.676 C 381.897 141.168,381.665 140.763,381.500 140.776 C 378.756 140.992,378.051 140.780,377.927 139.700 C 377.836 138.909,377.575 138.600,377.000 138.600 C 376.475 138.600,376.156 138.291,376.072 137.700 C 376.002 137.205,375.777 136.778,375.572 136.750 C 375.367 136.722,375.020 136.655,374.800 136.600 C 374.580 136.545,373.873 136.478,373.228 136.450 C 372.336 136.412,372.025 136.185,371.928 135.500 C 371.836 134.856,371.488 134.564,370.700 134.473 C 369.836 134.374,369.600 134.138,369.600 133.373 C 369.600 132.472,369.452 132.400,367.600 132.400 C 365.733 132.400,365.600 132.333,365.600 131.400 C 365.600 130.600,365.400 130.400,364.600 130.400 C 363.701 130.400,363.483 130.072,363.634 128.945 C 363.701 128.444,362.628 128.060,361.548 128.196 C 360.785 128.293,360.509 128.180,360.645 127.827 C 360.882 127.209,359.141 126.000,358.014 126.000 C 357.412 126.000,357.200 125.739,357.200 125.000 C 357.200 124.156,357.013 124.000,356.000 124.000 C 355.055 124.000,354.800 123.825,354.800 123.176 C 354.800 122.723,354.620 122.464,354.400 122.600 C 354.180 122.736,354.000 122.657,354.000 122.424 C 354.000 122.191,353.370 122.000,352.600 122.000 C 351.830 122.000,351.178 121.820,351.150 121.600 C 351.123 121.380,351.078 120.975,351.050 120.700 C 351.023 120.425,350.505 120.143,349.900 120.073 C 349.138 119.986,348.800 119.717,348.800 119.200 C 348.800 118.447,348.467 118.275,346.100 117.798 C 345.063 117.589,344.800 117.340,344.800 116.568 C 344.800 115.809,344.590 115.600,343.827 115.600 C 343.224 115.600,342.763 115.312,342.614 114.843 C 342.358 114.038,341.293 113.614,339.500 113.605 C 338.595 113.601,338.400 113.423,338.400 112.600 C 338.400 111.800,338.200 111.600,337.400 111.600 C 336.600 111.600,336.400 111.400,336.400 110.600 C 336.400 109.748,336.208 109.593,335.100 109.554 C 332.755 109.471,332.601 109.409,332.472 108.501 C 332.392 107.939,331.979 107.509,331.369 107.356 C 330.792 107.212,330.296 106.726,330.157 106.169 C 330.026 105.651,329.803 105.242,329.660 105.261 C 327.428 105.553,326.000 105.139,326.000 104.200 C 326.000 103.408,325.798 103.200,325.028 103.200 C 324.324 103.200,324.020 102.951,323.928 102.300 C 323.836 101.656,323.488 101.364,322.700 101.273 C 322.095 101.204,321.600 100.968,321.600 100.750 C 321.600 100.531,321.389 100.483,321.132 100.642 C 320.818 100.836,320.748 100.714,320.918 100.270 C 321.178 99.592,320.459 99.244,318.500 99.097 C 317.849 99.048,317.600 98.777,317.600 98.115 C 317.600 97.612,317.358 97.200,317.061 97.200 C 316.293 97.200,314.758 95.782,315.107 95.395 C 315.268 95.217,315.187 95.194,314.928 95.342 C 314.668 95.491,314.342 95.430,314.204 95.207 C 314.066 94.983,313.423 94.800,312.776 94.800 C 312.129 94.800,311.578 94.620,311.550 94.400 C 311.523 94.180,311.478 93.775,311.450 93.500 C 311.423 93.225,310.916 92.944,310.325 92.876 C 309.572 92.789,309.212 92.489,309.125 91.876 C 308.996 90.969,308.909 90.933,306.627 90.850 C 305.440 90.807,305.236 90.650,305.127 89.700 C 305.054 89.069,304.744 88.583,304.400 88.561 C 303.027 88.472,302.763 88.384,302.950 88.081 C 303.268 87.566,302.485 86.603,301.712 86.559 C 301.321 86.537,300.505 86.492,299.900 86.459 C 299.009 86.411,298.800 86.210,298.800 85.400 C 298.800 84.608,298.598 84.400,297.828 84.400 C 297.124 84.400,296.820 84.151,296.728 83.500 C 296.619 82.732,296.321 82.582,294.700 82.478 C 292.985 82.368,292.800 82.261,292.800 81.378 C 292.800 80.560,292.605 80.400,291.613 80.400 C 290.771 80.400,290.486 80.240,290.636 79.852 C 290.900 79.162,289.749 77.968,289.070 78.228 C 288.792 78.335,288.164 77.962,287.675 77.400 C 287.186 76.837,286.249 76.270,285.593 76.139 C 284.809 75.982,284.400 75.658,284.400 75.193 C 284.400 74.437,283.639 74.000,282.324 74.000 C 281.777 74.000,281.587 73.810,281.740 73.413 C 281.864 73.090,281.765 72.702,281.521 72.551 C 281.236 72.375,281.181 72.478,281.368 72.838 C 281.528 73.147,281.401 73.085,281.086 72.700 C 280.761 72.304,279.967 72.000,279.256 72.000 C 278.183 72.000,278.000 71.854,278.000 71.000 C 278.000 70.200,277.800 70.000,277.000 70.000 C 276.378 70.000,276.000 69.773,276.000 69.400 C 276.000 69.070,275.809 68.800,275.576 68.800 C 275.343 68.800,275.245 68.650,275.359 68.467 C 275.570 68.124,275.412 68.073,273.466 67.860 C 272.328 67.736,271.478 66.921,271.853 66.314 C 271.963 66.136,271.501 65.880,270.827 65.745 C 270.152 65.610,269.578 65.343,269.550 65.150 C 269.522 64.958,269.478 64.575,269.450 64.301 C 269.423 64.026,269.130 63.783,268.800 63.761 C 268.470 63.740,267.615 63.694,266.900 63.661 C 265.806 63.610,265.600 63.446,265.600 62.627 C 265.600 61.871,265.362 61.625,264.536 61.527 C 263.866 61.447,263.432 61.127,263.366 60.663 C 263.224 59.676,263.246 59.688,261.196 59.455 C 260.208 59.342,259.368 59.239,259.328 59.225 C 259.288 59.211,259.198 58.795,259.128 58.300 C 259.044 57.709,258.725 57.400,258.200 57.400 C 257.668 57.400,257.332 57.065,257.196 56.400 C 256.985 55.365,256.913 55.333,254.628 55.250 C 253.529 55.210,253.230 55.021,253.128 54.303 C 253.045 53.718,252.652 53.335,252.000 53.203 C 251.450 53.091,250.982 52.775,250.960 52.500 C 250.867 51.332,250.753 51.200,249.842 51.200 C 249.316 51.200,248.312 50.665,247.611 50.010 C 246.911 49.356,246.217 48.837,246.069 48.858 C 245.224 48.974,244.842 48.701,244.728 47.900 C 244.636 47.254,244.331 47.000,243.646 47.000 C 243.022 47.000,242.577 46.689,242.359 46.100 C 242.176 45.605,241.919 45.200,241.789 45.200 C 241.659 45.200,241.684 45.425,241.845 45.700 C 242.006 45.975,241.777 45.885,241.337 45.500 C 240.897 45.115,240.056 44.800,239.469 44.800 C 238.603 44.800,238.400 44.615,238.400 43.827 C 238.400 43.062,238.164 42.826,237.300 42.727 C 236.695 42.657,236.178 42.375,236.150 42.100 C 236.040 40.997,235.981 40.890,235.500 40.907 C 232.998 41.000,232.400 40.787,232.400 39.800 C 232.400 39.250,232.175 38.779,231.900 38.754 C 231.625 38.728,231.130 38.683,230.800 38.654 C 230.470 38.624,230.142 38.195,230.072 37.700 C 230.002 37.205,229.732 36.773,229.472 36.739 C 229.212 36.706,228.820 36.636,228.600 36.585 C 228.380 36.534,227.718 36.472,227.128 36.446 C 226.345 36.412,226.021 36.162,225.928 35.516 C 225.848 34.965,225.424 34.538,224.800 34.381 C 224.250 34.242,223.855 33.892,223.921 33.601 C 224.101 32.819,223.211 32.413,221.300 32.406 C 219.755 32.401,219.600 32.309,219.600 31.400 C 219.600 30.600,219.400 30.400,218.600 30.400 C 217.877 30.400,217.600 30.185,217.600 29.624 C 217.600 28.606,216.916 28.200,215.200 28.200 C 213.978 28.200,213.784 28.063,213.676 27.124 C 213.580 26.293,213.307 26.020,212.476 25.924 C 211.884 25.856,211.430 25.620,211.466 25.400 C 211.591 24.645,210.701 24.000,209.533 24.000 C 208.642 24.000,208.393 23.834,208.482 23.300 C 208.563 22.823,208.377 22.637,207.900 22.718 C 207.515 22.782,207.200 22.647,207.200 22.418 C 207.200 22.188,206.750 22.000,206.200 22.000 C 205.400 22.000,205.200 21.800,205.200 21.000 C 205.200 20.231,204.992 19.999,204.300 19.997 C 203.805 19.995,202.500 19.913,201.400 19.816 C 200.300 19.718,198.774 19.795,198.010 19.987 M224.856 93.195 C 225.216 93.198,225.936 93.547,226.456 93.970 L 227.400 94.740 226.400 96.587 C 225.802 97.692,225.037 98.525,224.495 98.662 C 223.997 98.787,223.457 99.113,223.295 99.386 C 223.133 99.660,222.235 100.362,221.300 100.947 C 220.365 101.532,219.600 102.188,219.600 102.405 C 219.600 102.622,219.236 102.800,218.790 102.800 C 218.286 102.800,217.831 103.192,217.585 103.839 C 217.368 104.410,216.833 104.971,216.395 105.085 C 215.958 105.200,215.600 105.538,215.600 105.836 C 215.600 106.135,215.060 106.659,214.400 107.000 C 213.740 107.341,213.200 107.882,213.200 108.203 C 213.200 108.523,212.767 108.893,212.238 109.026 C 211.709 109.159,211.182 109.626,211.067 110.064 C 210.953 110.501,210.501 110.953,210.064 111.067 C 209.626 111.182,209.159 111.709,209.026 112.238 C 208.893 112.767,208.514 113.200,208.182 113.200 C 207.851 113.200,207.413 113.639,207.209 114.176 C 207.005 114.712,206.470 115.349,206.019 115.590 C 205.569 115.831,205.200 116.220,205.200 116.454 C 205.200 116.688,204.660 117.383,204.000 118.000 C 203.340 118.617,202.800 119.495,202.800 119.951 C 202.800 120.408,202.350 121.076,201.800 121.437 C 201.250 121.797,200.800 122.333,200.800 122.627 C 200.800 123.548,199.894 125.200,199.388 125.200 C 199.123 125.200,198.807 125.934,198.687 126.831 C 198.566 127.728,198.175 128.785,197.817 129.181 C 197.222 129.839,197.168 136.550,197.181 209.430 L 197.195 288.961 198.975 289.413 C 199.954 289.662,200.990 290.058,201.278 290.293 C 201.565 290.528,204.590 290.836,208.000 290.977 C 214.302 291.238,218.840 291.787,220.095 292.439 C 221.547 293.194,237.280 292.877,238.882 292.060 C 239.727 291.629,241.721 291.205,243.659 291.043 C 246.199 290.831,247.190 290.573,247.855 289.948 C 248.459 289.381,249.484 289.062,251.204 288.906 C 253.079 288.736,253.911 288.453,254.623 287.741 C 255.140 287.223,256.014 286.800,256.564 286.800 C 257.114 286.800,258.228 286.350,259.038 285.800 C 259.849 285.250,261.012 284.800,261.623 284.800 C 263.122 284.800,264.000 284.425,264.000 283.784 C 264.000 283.258,264.302 283.121,266.580 282.610 C 267.229 282.464,268.165 281.907,268.661 281.372 C 269.156 280.838,269.812 280.400,270.119 280.400 C 270.425 280.400,270.993 280.050,271.379 279.623 C 271.766 279.195,272.649 278.722,273.341 278.570 C 274.034 278.419,274.996 277.869,275.481 277.348 C 275.965 276.826,276.755 276.400,277.235 276.400 C 277.715 276.400,278.525 275.950,279.035 275.400 C 279.552 274.842,280.408 274.400,280.972 274.400 C 281.607 274.400,282.224 274.030,282.637 273.400 C 282.997 272.850,283.515 272.400,283.787 272.400 C 284.059 272.400,284.846 271.860,285.537 271.200 C 286.249 270.519,287.227 270.000,287.796 270.000 C 288.446 270.000,288.800 269.776,288.800 269.365 C 288.800 269.016,289.328 268.531,289.974 268.287 C 290.619 268.044,291.232 267.522,291.335 267.127 C 291.438 266.732,291.995 266.230,292.572 266.011 C 293.149 265.791,294.010 265.249,294.486 264.806 C 294.962 264.363,295.738 264.000,296.211 264.000 C 296.741 264.000,297.247 263.616,297.527 263.000 C 297.778 262.450,298.224 262.000,298.519 262.000 C 298.814 262.000,299.431 261.568,299.890 261.040 C 300.350 260.512,301.290 259.956,301.980 259.804 C 302.670 259.653,303.669 259.095,304.199 258.564 C 304.730 258.034,305.489 257.600,305.887 257.600 C 306.285 257.600,306.948 257.150,307.361 256.600 C 307.774 256.050,308.451 255.600,308.866 255.600 C 309.302 255.600,309.780 255.178,310.000 254.600 C 310.416 253.505,311.996 253.212,312.696 254.100 C 313.944 255.685,313.358 266.886,311.930 268.754 C 311.485 269.335,311.200 270.378,311.200 271.423 C 311.200 272.669,310.926 273.464,310.200 274.327 C 309.650 274.981,309.200 275.900,309.200 276.371 C 309.200 277.492,308.144 280.000,307.671 280.000 C 307.468 280.000,307.215 280.906,307.108 282.013 C 306.983 283.315,306.614 284.347,306.062 284.934 C 305.593 285.433,305.029 286.791,304.809 287.952 C 304.589 289.113,304.047 290.523,303.604 291.085 C 303.162 291.648,302.800 292.590,302.800 293.179 C 302.800 293.767,302.406 294.672,301.924 295.189 C 301.371 295.783,300.940 296.932,300.753 298.308 C 300.572 299.640,300.135 300.831,299.629 301.370 C 299.173 301.855,298.800 302.651,298.800 303.139 C 298.800 304.284,297.750 306.800,297.272 306.800 C 297.070 306.800,296.811 307.629,296.696 308.642 C 296.582 309.655,296.137 310.960,295.708 311.542 C 295.278 312.124,294.709 313.259,294.444 314.065 C 294.178 314.870,293.710 315.626,293.403 315.744 C 293.096 315.861,292.731 316.642,292.592 317.479 C 292.233 319.641,291.617 321.108,290.963 321.359 C 290.610 321.494,290.400 322.165,290.400 323.157 C 290.400 324.230,290.098 325.102,289.460 325.869 C 288.928 326.508,288.417 327.781,288.285 328.796 C 288.144 329.872,287.739 330.844,287.273 331.221 C 286.698 331.687,286.421 332.600,286.207 334.731 C 285.997 336.824,285.720 337.751,285.197 338.117 C 284.775 338.413,284.360 339.392,284.198 340.475 C 284.003 341.775,283.567 342.665,282.734 343.463 L 281.547 344.600 186.785 344.600 L 92.022 344.600 91.171 343.749 C 90.195 342.773,90.585 341.449,91.979 341.007 C 92.408 340.870,92.864 340.428,92.993 340.023 C 93.235 339.261,94.313 338.815,95.937 338.805 C 96.530 338.802,96.951 338.511,97.081 338.013 C 97.194 337.581,97.672 337.106,98.143 336.959 C 98.614 336.811,99.509 336.265,100.131 335.745 C 100.753 335.225,101.669 334.800,102.166 334.800 C 102.744 334.800,103.237 334.438,103.527 333.800 C 103.778 333.250,104.253 332.800,104.582 332.800 C 104.912 332.800,105.477 332.349,105.839 331.797 C 106.275 331.131,107.006 330.713,108.013 330.551 C 109.020 330.391,109.595 330.061,109.723 329.573 C 109.829 329.168,110.400 328.715,110.991 328.566 C 111.583 328.418,112.494 327.870,113.015 327.348 C 113.537 326.827,114.268 326.400,114.640 326.400 C 115.012 326.400,115.695 326.042,116.158 325.604 C 118.542 323.351,119.448 322.656,120.666 322.147 C 121.400 321.840,122.000 321.408,122.000 321.186 C 122.000 320.964,122.488 320.562,123.084 320.291 C 123.680 320.021,125.017 318.990,126.055 318.000 C 127.092 317.010,128.423 315.863,129.012 315.450 C 129.601 315.038,130.336 314.093,130.647 313.350 C 130.957 312.608,131.470 312.000,131.787 312.000 C 132.132 312.000,132.472 311.424,132.632 310.570 C 132.780 309.783,133.329 308.741,133.854 308.255 L 134.807 307.371 134.703 218.147 C 134.629 154.266,134.476 128.763,134.162 128.361 C 133.763 127.850,133.231 126.038,132.612 123.087 C 132.483 122.475,131.573 121.180,130.589 120.210 C 129.605 119.240,128.800 118.285,128.800 118.087 C 128.800 117.890,128.345 117.521,127.789 117.268 C 127.233 117.014,126.668 116.522,126.534 116.173 C 126.400 115.824,125.865 115.377,125.345 115.179 C 124.825 114.982,124.400 114.568,124.400 114.260 C 124.400 113.952,123.896 113.599,123.281 113.476 C 122.665 113.353,121.720 112.817,121.181 112.285 C 120.641 111.753,119.795 111.105,119.300 110.845 C 118.805 110.585,118.400 110.108,118.400 109.786 C 118.400 109.464,118.212 109.200,117.982 109.200 C 117.752 109.200,117.128 108.764,116.595 108.231 C 116.062 107.698,115.260 107.146,114.813 107.004 C 114.366 106.862,114.000 106.421,114.000 106.023 C 114.000 105.538,113.601 105.220,112.788 105.058 C 112.121 104.924,111.156 104.362,110.642 103.808 C 110.128 103.253,109.409 102.800,109.044 102.800 C 108.679 102.800,108.209 102.350,108.000 101.800 C 107.769 101.193,107.305 100.800,106.819 100.800 C 106.379 100.800,105.724 100.350,105.363 99.800 C 105.003 99.250,104.403 98.800,104.029 98.800 C 100.746 98.800,100.720 93.444,104.002 93.133 C 104.972 93.041,212.170 93.096,224.856 93.195 " stroke="none" fill="#a43cac" fill-rule="evenodd"></path><path id="path2" d="M102.724 94.300 C 101.713 95.481,102.655 97.511,104.700 98.556 C 105.415 98.922,106.000 99.384,106.000 99.583 C 106.000 99.783,106.339 100.054,106.753 100.185 C 107.168 100.317,108.045 100.914,108.704 101.512 C 109.362 102.110,110.673 103.050,111.618 103.600 C 112.562 104.150,113.822 105.050,114.419 105.600 C 116.494 107.514,120.130 110.604,121.008 111.200 C 121.494 111.530,122.637 112.297,123.546 112.905 C 124.456 113.513,125.200 114.176,125.200 114.378 C 125.200 114.580,125.525 114.849,125.921 114.975 C 126.548 115.174,127.459 116.035,131.821 120.550 C 132.273 121.017,132.876 122.210,133.161 123.200 C 133.446 124.190,133.976 125.334,134.339 125.742 C 134.949 126.427,135.000 133.449,135.000 217.410 L 135.000 308.335 134.146 309.268 C 133.676 309.780,133.175 310.585,133.033 311.055 C 132.891 311.526,132.332 312.389,131.791 312.972 C 131.249 313.556,130.696 314.476,130.560 315.017 C 130.424 315.558,130.108 316.003,129.857 316.006 C 129.605 316.010,128.770 316.552,128.000 317.211 C 127.230 317.870,126.175 318.771,125.654 319.215 C 125.134 319.658,124.324 320.225,123.854 320.476 C 123.385 320.726,122.817 321.179,122.593 321.482 C 122.369 321.785,121.809 322.251,121.349 322.517 C 120.888 322.782,119.370 323.855,117.975 324.900 C 116.581 325.945,115.228 326.800,114.969 326.800 C 114.710 326.800,114.263 327.083,113.976 327.429 C 113.689 327.775,112.811 328.417,112.027 328.856 C 111.242 329.294,109.965 330.046,109.189 330.527 C 108.413 331.007,107.165 331.760,106.417 332.200 C 105.668 332.640,104.644 333.425,104.141 333.944 C 103.233 334.882,101.806 335.776,99.283 336.991 C 98.558 337.340,97.865 337.888,97.741 338.208 C 97.618 338.529,96.799 338.985,95.920 339.222 C 92.428 340.162,90.667 343.332,93.238 344.051 C 93.767 344.199,136.089 344.338,187.286 344.360 L 280.373 344.400 281.962 342.939 C 283.117 341.877,283.625 341.037,283.824 339.857 C 283.975 338.965,284.453 337.755,284.887 337.168 C 285.331 336.568,285.798 335.074,285.957 333.751 C 286.112 332.458,286.563 330.909,286.960 330.308 C 287.357 329.708,287.850 328.468,288.055 327.553 C 288.261 326.638,288.782 325.440,289.214 324.891 C 289.646 324.342,290.000 323.493,290.000 323.006 C 290.000 322.518,290.440 321.291,290.978 320.280 C 291.516 319.268,292.078 317.756,292.228 316.920 C 292.377 316.084,292.814 315.040,293.200 314.600 C 293.586 314.160,294.113 313.139,294.371 312.332 C 294.630 311.525,295.092 310.656,295.398 310.401 C 295.705 310.147,296.156 308.976,296.400 307.800 C 296.644 306.624,297.088 305.459,297.387 305.211 C 297.685 304.963,298.148 303.824,298.416 302.680 C 298.683 301.536,299.143 300.323,299.437 299.984 C 299.732 299.645,300.178 298.385,300.430 297.184 C 300.682 295.983,301.235 294.621,301.660 294.157 C 302.084 293.694,302.523 292.614,302.634 291.757 L 302.836 290.200 302.264 291.704 C 301.949 292.531,301.503 293.435,301.272 293.713 C 300.771 294.317,298.968 299.026,298.204 301.725 C 297.904 302.784,297.399 304.046,297.082 304.531 C 296.765 305.015,296.375 306.002,296.217 306.723 C 296.059 307.444,295.061 309.729,294.000 311.800 C 292.939 313.871,291.944 316.143,291.789 316.849 C 291.634 317.554,291.078 318.939,290.554 319.925 C 290.029 320.912,289.600 321.971,289.600 322.278 C 289.600 322.585,289.150 323.682,288.600 324.715 C 288.050 325.748,287.600 326.976,287.600 327.443 C 287.600 327.910,287.248 328.739,286.818 329.286 C 286.389 329.832,285.862 331.368,285.647 332.699 C 285.433 334.030,284.906 335.812,284.478 336.660 C 284.049 337.507,283.576 338.763,283.428 339.451 C 283.279 340.139,282.580 341.351,281.875 342.144 L 280.591 343.587 187.163 343.607 C 98.828 343.625,92.400 343.571,92.400 342.804 C 92.400 342.331,95.536 339.600,96.080 339.600 C 96.342 339.600,97.197 339.177,97.978 338.660 C 98.760 338.143,100.300 337.163,101.400 336.483 C 102.500 335.802,103.850 334.859,104.400 334.387 C 104.950 333.915,106.019 333.140,106.776 332.664 C 109.341 331.054,110.996 330.056,112.427 329.256 C 113.211 328.817,114.089 328.175,114.376 327.829 C 114.663 327.483,115.121 327.200,115.394 327.200 C 115.667 327.200,116.590 326.668,117.445 326.017 C 118.300 325.367,119.630 324.364,120.400 323.790 C 130.691 316.110,131.340 315.506,133.074 312.000 C 133.455 311.230,134.134 310.180,134.583 309.668 L 135.400 308.735 135.400 217.468 L 135.400 126.200 133.932 123.196 C 132.422 120.105,128.549 115.718,126.300 114.550 C 125.695 114.236,125.192 113.849,125.181 113.690 C 125.171 113.530,124.246 112.770,123.125 112.000 C 122.004 111.230,120.063 109.700,118.812 108.600 C 117.560 107.500,115.381 105.737,113.968 104.682 C 112.556 103.628,110.320 101.956,109.000 100.968 C 107.680 99.980,105.918 98.721,105.084 98.171 C 103.407 97.063,102.494 95.346,103.205 94.635 C 103.659 94.181,222.466 93.752,224.300 94.197 C 226.012 94.612,225.309 96.948,223.138 98.057 C 220.259 99.528,203.718 115.779,202.040 118.784 C 201.688 119.415,201.008 120.634,200.529 121.492 C 200.050 122.351,199.375 123.289,199.029 123.576 C 198.683 123.863,198.400 124.275,198.400 124.491 C 198.400 124.707,197.905 125.810,197.300 126.942 L 196.200 129.000 196.200 209.335 L 196.200 289.671 197.106 290.404 C 197.690 290.877,198.967 291.219,200.706 291.367 C 205.700 291.792,210.577 292.383,214.600 293.052 C 220.538 294.039,237.715 294.035,240.800 293.047 C 242.010 292.659,243.900 292.164,245.000 291.948 C 246.100 291.732,247.810 291.282,248.800 290.948 C 249.790 290.614,251.680 290.059,253.000 289.713 C 254.320 289.368,255.679 288.846,256.020 288.553 C 256.361 288.260,257.441 287.745,258.420 287.408 C 260.490 286.694,260.803 286.560,264.830 284.642 C 266.496 283.849,268.015 283.200,268.204 283.200 C 268.393 283.200,268.920 282.863,269.374 282.451 C 269.828 282.038,271.627 280.957,273.371 280.048 C 275.115 279.139,276.825 278.150,277.171 277.851 C 277.792 277.313,278.675 276.811,281.800 275.220 C 282.680 274.772,284.210 273.778,285.200 273.011 C 286.190 272.244,287.540 271.317,288.200 270.952 C 288.860 270.586,290.451 269.413,291.735 268.344 C 293.019 267.275,294.268 266.400,294.509 266.400 C 294.751 266.400,295.320 266.063,295.774 265.650 C 297.097 264.450,302.966 260.528,303.869 260.242 C 304.323 260.097,305.016 259.624,305.409 259.190 C 305.802 258.755,306.351 258.400,306.628 258.400 C 306.905 258.400,307.552 258.046,308.066 257.614 C 311.420 254.793,311.473 254.765,312.054 255.465 C 312.783 256.344,312.700 259.489,311.892 261.654 C 311.533 262.614,311.051 265.145,310.821 267.277 C 310.521 270.046,310.115 271.693,309.401 273.037 C 308.850 274.072,308.400 275.186,308.400 275.512 C 308.400 275.839,308.059 276.667,307.643 277.353 C 307.227 278.039,306.766 279.230,306.618 280.000 C 306.379 281.247,304.919 284.676,303.356 287.662 C 303.050 288.246,302.801 289.056,302.801 289.462 C 302.804 290.591,304.147 288.180,304.771 285.926 C 305.056 284.895,305.524 283.961,305.811 283.851 C 306.098 283.741,306.547 282.604,306.808 281.325 C 307.069 280.046,307.518 278.730,307.804 278.400 C 308.091 278.070,308.536 277.009,308.794 276.042 C 309.051 275.075,309.591 273.815,309.993 273.242 C 310.465 272.568,310.892 270.785,311.201 268.200 C 311.463 266.000,311.923 263.570,312.224 262.800 C 313.458 259.633,313.290 255.197,311.902 254.339 C 311.656 254.187,310.542 254.827,309.427 255.762 C 307.256 257.582,305.460 258.769,303.165 259.904 C 301.771 260.593,297.864 263.278,295.602 265.100 C 294.987 265.595,294.296 266.000,294.065 266.000 C 293.834 266.000,292.510 266.950,291.123 268.111 C 289.735 269.272,288.150 270.442,287.600 270.711 C 287.050 270.979,285.790 271.831,284.800 272.602 C 283.810 273.374,282.280 274.375,281.400 274.827 C 278.160 276.491,276.979 277.191,276.066 277.986 C 275.552 278.434,274.902 278.800,274.620 278.800 C 274.338 278.800,273.679 279.135,273.154 279.545 C 272.629 279.955,271.750 280.425,271.200 280.590 C 270.650 280.755,269.750 281.307,269.200 281.816 C 268.650 282.326,267.660 282.869,267.000 283.024 C 266.340 283.179,265.440 283.625,265.000 284.017 C 264.560 284.408,263.390 284.941,262.400 285.201 C 261.410 285.462,260.330 285.908,260.000 286.193 C 259.670 286.478,258.770 286.840,258.000 286.999 C 257.230 287.157,256.228 287.627,255.774 288.043 C 255.320 288.459,253.886 288.996,252.587 289.236 C 251.288 289.476,249.590 289.995,248.813 290.389 C 248.036 290.783,246.230 291.235,244.800 291.394 C 243.370 291.552,241.660 291.914,241.000 292.198 C 240.340 292.482,239.440 292.837,239.000 292.988 C 237.285 293.573,218.301 293.253,216.196 292.603 C 215.098 292.264,210.845 291.736,206.744 291.431 C 200.969 291.001,199.030 290.715,198.144 290.159 C 197.515 289.765,196.952 289.415,196.894 289.382 C 196.193 288.982,196.886 128.955,197.594 127.810 C 198.037 127.092,198.400 126.226,198.400 125.883 C 198.400 125.541,198.850 124.727,199.400 124.073 C 199.950 123.419,200.400 122.697,200.400 122.467 C 200.400 122.237,200.940 121.458,201.600 120.736 C 202.260 120.013,202.800 119.024,202.800 118.538 C 202.800 118.005,203.118 117.553,203.600 117.400 C 204.040 117.260,204.400 116.985,204.400 116.788 C 204.400 116.344,209.299 111.081,212.477 108.111 C 212.765 107.842,213.223 107.392,213.496 107.111 C 213.770 106.830,214.715 105.904,215.596 105.053 C 216.478 104.202,217.200 103.367,217.200 103.196 C 217.200 103.026,217.638 102.777,218.173 102.642 C 218.709 102.508,219.261 102.039,219.400 101.599 C 219.540 101.160,219.843 100.800,220.074 100.800 C 220.305 100.800,221.077 100.305,221.788 99.700 C 222.500 99.095,223.625 98.307,224.288 97.949 C 225.570 97.257,226.174 95.411,225.508 94.221 C 224.938 93.203,103.597 93.281,102.724 94.300 " stroke="none" fill="#be76c6" fill-rule="evenodd"></path><path id="path3" d="M103.672 94.423 C 102.556 94.870,102.764 96.185,104.131 97.322 C 106.280 99.109,110.273 102.117,111.000 102.496 C 112.033 103.035,115.889 106.051,118.801 108.600 C 120.059 109.700,122.004 111.230,123.125 112.000 C 124.246 112.770,125.171 113.530,125.181 113.690 C 125.192 113.849,125.695 114.236,126.300 114.550 C 128.549 115.718,132.422 120.105,133.932 123.196 L 135.400 126.200 135.400 217.468 L 135.400 308.735 134.583 309.668 C 134.134 310.180,133.455 311.230,133.074 312.000 C 131.340 315.506,130.691 316.110,120.400 323.790 C 119.630 324.364,118.300 325.367,117.445 326.017 C 116.590 326.668,115.667 327.200,115.394 327.200 C 115.121 327.200,114.663 327.483,114.376 327.829 C 114.089 328.175,113.211 328.817,112.427 329.256 C 110.996 330.056,109.341 331.054,106.776 332.664 C 106.019 333.140,104.950 333.915,104.400 334.387 C 103.850 334.859,102.500 335.802,101.400 336.483 C 100.300 337.163,98.760 338.143,97.978 338.660 C 97.197 339.177,96.342 339.600,96.080 339.600 C 95.536 339.600,92.400 342.331,92.400 342.804 C 92.400 343.571,98.828 343.625,187.163 343.607 L 280.591 343.587 281.875 342.144 C 282.580 341.351,283.279 340.139,283.428 339.451 C 283.576 338.763,284.049 337.507,284.478 336.660 C 284.906 335.812,285.433 334.030,285.647 332.699 C 285.862 331.368,286.389 329.832,286.818 329.286 C 287.248 328.739,287.600 327.910,287.600 327.443 C 287.600 326.976,288.050 325.748,288.600 324.715 C 289.150 323.682,289.600 322.585,289.600 322.278 C 289.600 321.971,290.029 320.912,290.554 319.925 C 291.078 318.939,291.634 317.554,291.789 316.849 C 291.944 316.143,292.939 313.871,294.000 311.800 C 295.061 309.729,296.059 307.444,296.217 306.723 C 296.375 306.002,296.765 305.015,297.082 304.531 C 297.399 304.046,297.904 302.784,298.204 301.725 C 299.011 298.873,300.612 294.767,301.532 293.189 C 301.977 292.425,302.468 291.080,302.622 290.200 C 302.777 289.320,303.130 288.150,303.408 287.600 C 305.134 284.175,306.385 281.214,306.618 280.000 C 306.766 279.230,307.227 278.039,307.643 277.353 C 308.059 276.667,308.400 275.839,308.400 275.512 C 308.400 275.186,308.850 274.072,309.401 273.037 C 310.115 271.693,310.521 270.046,310.821 267.277 C 311.051 265.145,311.533 262.614,311.892 261.654 C 312.700 259.489,312.783 256.344,312.054 255.465 C 311.473 254.765,311.420 254.793,308.066 257.614 C 307.552 258.046,306.905 258.400,306.628 258.400 C 306.351 258.400,305.802 258.755,305.409 259.190 C 305.016 259.624,304.323 260.097,303.869 260.242 C 302.966 260.528,297.097 264.450,295.774 265.650 C 295.320 266.063,294.751 266.400,294.509 266.400 C 294.268 266.400,293.019 267.275,291.735 268.344 C 290.451 269.413,288.860 270.586,288.200 270.952 C 287.540 271.317,286.190 272.244,285.200 273.011 C 284.210 273.778,282.680 274.772,281.800 275.220 C 278.675 276.811,277.792 277.313,277.171 277.851 C 276.825 278.150,275.115 279.139,273.371 280.048 C 271.627 280.957,269.828 282.038,269.374 282.451 C 268.920 282.863,268.393 283.200,268.204 283.200 C 268.015 283.200,266.496 283.849,264.830 284.642 C 260.803 286.560,260.490 286.694,258.420 287.408 C 257.441 287.745,256.361 288.260,256.020 288.553 C 255.679 288.846,254.320 289.368,253.000 289.713 C 251.680 290.059,249.790 290.614,248.800 290.948 C 247.810 291.282,246.100 291.732,245.000 291.948 C 243.900 292.164,242.010 292.659,240.800 293.047 C 237.715 294.035,220.538 294.039,214.600 293.052 C 210.577 292.383,205.700 291.792,200.706 291.367 C 198.967 291.219,197.690 290.877,197.106 290.404 L 196.200 289.671 196.200 209.335 L 196.200 129.000 197.300 126.942 C 197.905 125.810,198.400 124.707,198.400 124.491 C 198.400 124.275,198.683 123.863,199.029 123.576 C 199.375 123.289,200.050 122.351,200.529 121.492 C 203.134 116.822,202.213 117.912,211.214 108.855 C 218.154 101.872,221.368 98.961,223.138 98.057 C 225.121 97.044,225.969 94.781,224.567 94.243 C 223.508 93.836,104.694 94.013,103.672 94.423 M164.786 95.600 C 221.964 95.600,223.111 95.615,223.308 96.368 C 223.453 96.926,223.255 97.200,222.584 97.368 C 222.075 97.496,220.750 98.500,219.638 99.600 C 218.527 100.700,217.478 101.600,217.307 101.600 C 217.137 101.600,216.488 102.140,215.865 102.800 C 215.242 103.460,214.567 104.000,214.366 104.000 C 214.165 104.000,214.000 104.192,214.000 104.427 C 214.000 104.908,211.385 107.473,210.305 108.051 C 209.917 108.258,209.600 108.692,209.600 109.014 C 209.600 109.336,209.336 109.600,209.014 109.600 C 208.692 109.600,208.249 109.934,208.031 110.342 C 207.812 110.751,206.771 112.006,205.717 113.132 C 202.321 116.758,200.502 119.182,199.438 121.500 C 199.109 122.215,198.666 122.800,198.451 122.800 C 198.237 122.800,197.840 123.475,197.568 124.300 C 197.296 125.125,196.697 126.310,196.237 126.933 L 195.400 128.067 195.282 207.533 C 195.217 251.240,195.275 287.778,195.411 288.729 C 195.793 291.402,196.487 291.838,200.877 292.160 C 202.965 292.314,205.647 292.702,206.837 293.023 C 214.493 295.090,241.724 295.255,244.140 293.250 C 244.433 293.006,246.187 292.520,248.037 292.169 C 249.886 291.819,251.615 291.353,251.877 291.136 C 252.140 290.918,253.283 290.495,254.418 290.195 C 255.552 289.896,256.777 289.391,257.140 289.072 C 257.503 288.754,258.811 288.204,260.048 287.851 C 261.284 287.497,262.521 286.936,262.797 286.604 C 263.072 286.272,263.701 286.000,264.193 286.000 C 264.686 286.000,265.751 285.550,266.562 285.000 C 267.372 284.450,268.291 284.000,268.604 284.000 C 268.916 284.000,269.787 283.460,270.539 282.800 C 271.291 282.140,272.155 281.600,272.460 281.600 C 272.765 281.600,273.677 281.150,274.486 280.600 C 275.295 280.050,276.076 279.600,276.221 279.600 C 276.366 279.600,277.019 279.150,277.673 278.600 C 278.327 278.050,279.104 277.600,279.400 277.600 C 279.696 277.600,280.447 277.175,281.069 276.655 C 281.691 276.135,282.650 275.570,283.200 275.399 C 283.750 275.228,284.650 274.743,285.200 274.322 C 286.629 273.229,288.933 271.562,290.619 270.400 C 291.418 269.850,292.664 268.905,293.388 268.300 C 294.113 267.695,294.892 267.200,295.119 267.200 C 295.346 267.200,295.952 266.840,296.466 266.401 C 297.881 265.190,300.049 263.698,301.500 262.935 C 302.215 262.559,302.800 262.114,302.800 261.945 C 302.800 261.776,303.610 261.279,304.600 260.841 C 305.590 260.403,306.400 259.877,306.400 259.671 C 306.400 259.465,306.944 259.072,307.609 258.796 C 308.275 258.521,308.950 258.090,309.109 257.839 C 310.830 255.139,312.475 256.813,311.173 259.939 C 310.492 261.572,310.166 263.311,309.998 266.200 C 309.840 268.927,309.556 270.518,309.105 271.200 C 308.742 271.750,308.253 273.056,308.020 274.102 C 307.787 275.148,307.237 276.363,306.798 276.802 C 306.332 277.268,305.998 278.141,305.994 278.900 C 305.991 279.615,305.726 280.650,305.405 281.200 C 305.084 281.750,304.546 282.830,304.210 283.600 C 303.873 284.370,303.261 285.630,302.848 286.400 C 302.436 287.170,301.964 288.610,301.800 289.600 C 301.637 290.590,301.148 291.900,300.716 292.511 C 300.283 293.123,299.747 294.293,299.525 295.111 C 299.302 295.930,298.883 296.870,298.593 297.200 C 298.303 297.530,297.857 298.960,297.602 300.377 C 297.346 301.794,296.811 303.368,296.414 303.874 C 296.016 304.379,295.565 305.470,295.411 306.297 C 295.258 307.123,294.882 308.079,294.577 308.420 C 294.271 308.761,293.741 309.833,293.399 310.804 C 293.056 311.774,292.592 312.681,292.367 312.821 C 292.141 312.960,291.682 314.128,291.345 315.416 C 291.009 316.704,290.389 318.197,289.967 318.733 C 289.545 319.269,289.200 320.189,289.200 320.776 C 289.200 321.364,288.750 322.455,288.200 323.200 C 287.650 323.945,287.200 324.944,287.200 325.418 C 287.200 325.893,286.761 327.106,286.225 328.114 C 285.689 329.123,285.066 330.946,284.840 332.165 C 284.615 333.384,284.171 334.791,283.855 335.291 C 283.538 335.791,283.153 336.830,283.000 337.600 C 282.847 338.370,282.154 339.849,281.461 340.887 L 280.200 342.774 187.600 342.887 C 136.670 342.949,94.827 342.863,94.616 342.696 C 94.195 342.363,96.551 340.000,97.303 340.000 C 97.553 340.000,98.397 339.579,99.178 339.064 C 99.960 338.549,101.122 337.784,101.760 337.364 C 102.397 336.944,103.304 336.330,103.774 336.000 C 104.244 335.670,105.235 335.040,105.977 334.600 C 106.718 334.160,107.693 333.440,108.142 333.000 C 108.972 332.186,109.506 331.855,113.146 329.893 C 114.276 329.285,115.200 328.627,115.200 328.432 C 115.200 328.238,115.749 327.887,116.420 327.653 C 117.091 327.419,118.576 326.453,119.720 325.505 C 120.864 324.558,122.700 323.169,123.800 322.418 C 124.900 321.667,126.361 320.591,127.048 320.027 C 127.734 319.462,128.950 318.460,129.749 317.800 C 131.108 316.679,131.787 315.806,133.800 312.598 C 134.240 311.896,134.960 310.808,135.400 310.179 C 136.193 309.045,136.201 308.297,136.310 221.218 C 136.424 130.192,136.345 124.873,134.844 122.965 C 134.380 122.375,134.000 121.651,134.000 121.356 C 134.000 120.552,129.238 115.179,127.873 114.442 C 127.218 114.089,126.317 113.395,125.869 112.900 C 125.422 112.405,124.813 112.000,124.515 112.000 C 124.218 112.000,123.869 111.723,123.739 111.385 C 123.609 111.047,122.963 110.491,122.303 110.150 C 121.642 109.808,120.449 108.871,119.651 108.067 C 118.304 106.711,116.102 104.974,112.876 102.724 C 111.307 101.629,108.587 99.549,107.237 98.412 C 106.707 97.965,106.077 97.597,105.837 97.594 C 105.596 97.591,105.156 97.433,104.859 97.245 C 104.097 96.762,105.017 95.044,105.863 95.369 C 106.195 95.496,132.710 95.600,164.786 95.600 " stroke="none" fill="#d4a4dc" fill-rule="evenodd"></path><path id="path4" d="M195.900 20.432 C 195.515 20.656,195.203 21.146,195.206 21.520 C 195.211 22.046,195.289 22.079,195.551 21.666 C 195.737 21.372,196.045 21.102,196.236 21.066 C 196.427 21.030,196.615 20.775,196.656 20.500 C 196.742 19.912,196.786 19.916,195.900 20.432 M99.619 85.564 C 99.286 86.187,99.338 86.309,99.905 86.226 C 100.287 86.170,100.540 85.981,100.466 85.807 C 100.392 85.632,100.572 85.337,100.866 85.151 C 101.278 84.890,101.243 84.811,100.714 84.806 C 100.337 84.803,99.844 85.144,99.619 85.564 M104.002 93.133 C 100.720 93.444,100.746 98.800,104.029 98.800 C 104.403 98.800,105.003 99.250,105.363 99.800 C 105.724 100.350,106.379 100.800,106.819 100.800 C 107.305 100.800,107.769 101.193,108.000 101.800 C 108.209 102.350,108.679 102.800,109.044 102.800 C 109.409 102.800,110.128 103.253,110.642 103.808 C 111.156 104.362,112.121 104.924,112.788 105.058 C 113.601 105.220,114.000 105.538,114.000 106.023 C 114.000 106.421,114.366 106.862,114.813 107.004 C 115.260 107.146,116.062 107.698,116.595 108.231 C 117.128 108.764,117.752 109.200,117.982 109.200 C 118.212 109.200,118.400 109.464,118.400 109.786 C 118.400 110.108,118.805 110.585,119.300 110.845 C 119.795 111.105,120.641 111.753,121.181 112.285 C 121.720 112.817,122.665 113.353,123.281 113.476 C 123.896 113.599,124.400 113.952,124.400 114.260 C 124.400 114.568,124.825 114.982,125.345 115.179 C 125.865 115.377,126.400 115.824,126.534 116.173 C 126.668 116.522,127.233 117.014,127.789 117.268 C 128.345 117.521,128.800 117.890,128.800 118.087 C 128.800 118.285,129.615 119.250,130.612 120.233 C 132.012 121.613,132.506 122.449,132.785 123.910 C 133.156 125.859,133.429 126.818,134.007 128.200 C 134.191 128.640,134.430 129.270,134.539 129.600 C 134.648 129.930,134.751 129.277,134.768 128.149 C 134.788 126.863,134.595 125.928,134.250 125.641 C 133.947 125.390,133.466 124.333,133.180 123.292 C 132.894 122.252,132.287 121.017,131.830 120.550 C 131.374 120.082,130.020 118.688,128.821 117.452 C 127.623 116.216,126.318 115.101,125.921 114.975 C 125.525 114.849,125.200 114.580,125.200 114.378 C 125.200 114.176,124.456 113.513,123.546 112.905 C 122.637 112.297,121.494 111.530,121.008 111.200 C 120.130 110.604,116.494 107.514,114.419 105.600 C 113.822 105.050,112.562 104.150,111.618 103.600 C 110.673 103.050,109.362 102.110,108.704 101.512 C 108.045 100.914,107.168 100.317,106.753 100.185 C 106.339 100.054,106.000 99.783,106.000 99.583 C 106.000 99.384,105.415 98.922,104.700 98.556 C 102.655 97.511,101.713 95.481,102.724 94.300 C 103.597 93.281,224.938 93.203,225.508 94.221 C 226.174 95.411,225.570 97.257,224.288 97.949 C 223.625 98.307,222.500 99.095,221.788 99.700 C 221.077 100.305,220.293 100.800,220.047 100.800 C 219.801 100.800,219.600 100.967,219.600 101.171 C 219.600 101.376,219.317 101.826,218.971 102.171 C 218.400 102.743,218.400 102.800,218.971 102.800 C 219.317 102.800,219.600 102.622,219.600 102.405 C 219.600 102.188,220.365 101.532,221.300 100.947 C 222.235 100.362,223.133 99.660,223.295 99.386 C 223.457 99.113,223.997 98.787,224.495 98.662 C 225.037 98.525,225.802 97.692,226.400 96.587 L 227.400 94.740 226.456 93.970 C 225.936 93.547,225.216 93.198,224.856 93.195 C 212.170 93.096,104.972 93.041,104.002 93.133 M217.200 103.153 C 217.200 103.347,216.435 104.245,215.500 105.149 C 214.565 106.053,213.620 106.980,213.400 107.208 C 213.180 107.436,212.765 107.842,212.477 108.111 C 209.299 111.081,204.400 116.344,204.400 116.788 C 204.400 116.985,204.040 117.260,203.600 117.400 C 203.160 117.540,202.800 117.984,202.800 118.387 C 202.800 119.013,202.977 118.956,204.000 118.000 C 204.660 117.383,205.200 116.688,205.200 116.454 C 205.200 116.220,205.569 115.831,206.019 115.590 C 206.470 115.349,207.005 114.712,207.209 114.176 C 207.413 113.639,207.851 113.200,208.182 113.200 C 208.514 113.200,208.893 112.767,209.026 112.238 C 209.159 111.709,209.626 111.182,210.064 111.067 C 210.501 110.953,210.953 110.501,211.067 110.064 C 211.182 109.626,211.709 109.159,212.238 109.026 C 212.767 108.893,213.200 108.523,213.200 108.203 C 213.200 107.882,213.740 107.341,214.400 107.000 C 215.060 106.659,215.600 106.157,215.600 105.885 C 215.600 105.612,215.989 105.212,216.464 104.995 C 217.365 104.583,218.277 102.800,217.587 102.800 C 217.374 102.800,217.200 102.959,217.200 103.153 M201.497 120.832 C 200.894 121.520,200.400 122.263,200.400 122.483 C 200.400 122.704,199.950 123.419,199.400 124.073 C 198.850 124.727,198.400 125.508,198.400 125.810 C 198.400 126.111,197.950 127.204,197.400 128.238 C 196.850 129.273,196.425 130.587,196.454 131.160 L 196.509 132.200 196.690 131.200 C 196.789 130.650,197.229 129.813,197.668 129.339 C 198.107 128.866,198.565 127.741,198.685 126.839 C 198.806 125.938,199.123 125.200,199.388 125.200 C 199.876 125.200,200.800 123.560,200.800 122.696 C 200.800 122.440,201.276 121.851,201.857 121.387 C 202.439 120.923,202.842 120.327,202.754 120.063 C 202.660 119.779,202.145 120.093,201.497 120.832 M134.897 218.828 L 134.800 307.456 133.854 308.278 C 133.333 308.731,132.785 309.753,132.636 310.551 C 132.473 311.420,132.133 312.000,131.787 312.000 C 131.470 312.000,130.957 312.608,130.647 313.350 C 130.336 314.093,129.601 315.038,129.012 315.450 C 128.423 315.863,127.092 317.010,126.055 318.000 C 125.017 318.990,123.680 320.021,123.084 320.291 C 122.488 320.562,122.000 320.964,122.000 321.186 C 122.000 321.408,121.400 321.840,120.666 322.147 C 119.448 322.656,118.542 323.351,116.158 325.604 C 115.695 326.042,115.012 326.400,114.640 326.400 C 114.268 326.400,113.557 326.805,113.061 327.300 C 112.564 327.795,111.629 328.384,110.983 328.608 C 110.336 328.833,109.747 329.332,109.673 329.717 C 109.532 330.451,110.996 329.682,113.663 327.621 C 114.248 327.170,114.887 326.800,115.083 326.800 C 115.279 326.800,116.581 325.945,117.975 324.900 C 119.370 323.855,120.888 322.782,121.349 322.517 C 121.809 322.251,122.369 321.785,122.593 321.482 C 122.817 321.179,123.385 320.726,123.854 320.476 C 124.324 320.225,125.134 319.658,125.654 319.215 C 126.175 318.771,127.230 317.870,128.000 317.211 C 128.770 316.552,129.605 316.010,129.857 316.006 C 130.108 316.003,130.424 315.558,130.560 315.017 C 130.696 314.476,131.249 313.556,131.791 312.972 C 132.332 312.389,132.891 311.526,133.033 311.055 C 133.175 310.585,133.676 309.781,134.146 309.268 L 135.000 308.336 135.103 244.668 C 135.160 209.651,135.159 169.570,135.100 155.600 C 135.042 141.630,134.950 170.083,134.897 218.828 M365.600 131.800 C 365.600 132.130,365.892 132.400,366.249 132.400 C 366.780 132.400,366.808 132.291,366.400 131.800 C 366.126 131.470,365.834 131.200,365.751 131.200 C 365.668 131.200,365.600 131.470,365.600 131.800 M196.996 210.400 C 196.996 252.310,197.043 269.455,197.100 248.500 C 197.157 227.545,197.157 193.255,197.100 172.300 C 197.043 151.345,196.996 168.490,196.996 210.400 M385.263 205.733 C 384.590 206.449,384.527 206.667,384.993 206.667 C 385.327 206.667,385.510 206.576,385.399 206.466 C 385.289 206.355,385.497 205.935,385.861 205.532 C 386.835 204.456,386.291 204.639,385.263 205.733 M310.000 254.600 C 309.780 255.178,309.302 255.600,308.866 255.600 C 308.451 255.600,307.774 256.050,307.361 256.600 C 306.948 257.150,306.285 257.600,305.887 257.600 C 305.489 257.600,304.730 258.034,304.199 258.564 C 303.669 259.095,302.670 259.653,301.980 259.804 C 301.290 259.956,300.350 260.512,299.890 261.040 C 299.431 261.568,298.825 262.000,298.542 262.000 C 298.088 262.000,297.200 263.171,297.200 263.770 C 297.200 263.893,298.235 263.215,299.500 262.264 C 300.765 261.312,302.147 260.407,302.570 260.253 C 303.862 259.781,306.738 257.900,309.168 255.938 C 310.437 254.913,311.672 254.197,311.912 254.346 C 313.290 255.197,313.454 259.645,312.224 262.800 C 311.923 263.570,311.463 266.000,311.201 268.200 C 310.887 270.829,310.468 272.565,309.977 273.264 C 309.566 273.849,309.023 275.148,308.770 276.152 C 308.518 277.155,308.061 278.183,307.756 278.437 C 307.103 278.978,307.015 280.000,307.620 280.000 C 308.133 280.000,309.200 277.549,309.200 276.371 C 309.200 275.900,309.650 274.981,310.200 274.327 C 310.926 273.464,311.200 272.669,311.200 271.423 C 311.200 270.378,311.485 269.335,311.930 268.754 C 313.358 266.886,313.944 255.685,312.696 254.100 C 311.996 253.212,310.416 253.505,310.000 254.600 M294.486 264.806 C 294.010 265.249,293.149 265.791,292.572 266.011 C 291.995 266.230,291.438 266.732,291.335 267.127 C 291.232 267.522,290.619 268.044,289.974 268.287 C 289.328 268.531,288.800 269.016,288.800 269.365 C 288.800 269.776,288.446 270.000,287.796 270.000 C 287.227 270.000,286.249 270.519,285.537 271.200 C 284.846 271.860,284.059 272.400,283.787 272.400 C 283.515 272.400,282.997 272.850,282.637 273.400 C 282.224 274.030,281.607 274.400,280.972 274.400 C 280.408 274.400,279.552 274.842,279.035 275.400 C 278.525 275.950,277.715 276.400,277.235 276.400 C 276.755 276.400,275.965 276.826,275.481 277.348 C 274.996 277.869,274.034 278.419,273.341 278.570 C 272.649 278.722,271.766 279.195,271.379 279.623 C 270.993 280.050,270.425 280.400,270.119 280.400 C 269.812 280.400,269.156 280.838,268.661 281.372 C 268.165 281.907,267.229 282.464,266.580 282.610 C 264.302 283.121,264.000 283.258,264.000 283.784 C 264.000 284.425,263.122 284.800,261.623 284.800 C 261.012 284.800,259.849 285.250,259.038 285.800 C 258.228 286.350,257.114 286.800,256.564 286.800 C 256.014 286.800,255.140 287.223,254.623 287.741 C 253.911 288.453,253.079 288.736,251.204 288.906 C 249.484 289.062,248.459 289.381,247.855 289.948 C 247.190 290.573,246.199 290.831,243.659 291.043 C 241.721 291.205,239.727 291.629,238.882 292.060 C 237.280 292.877,221.547 293.194,220.095 292.439 C 218.840 291.787,214.302 291.238,208.000 290.977 C 204.590 290.836,201.565 290.528,201.278 290.293 C 200.990 290.058,199.910 289.651,198.878 289.389 C 197.293 288.987,196.961 288.732,196.747 287.756 C 196.511 286.677,196.492 286.666,196.453 287.600 C 196.348 290.167,197.993 290.780,206.744 291.431 C 210.845 291.736,215.098 292.264,216.196 292.603 C 218.301 293.253,237.285 293.573,239.000 292.988 C 239.440 292.837,240.340 292.482,241.000 292.198 C 241.660 291.914,243.370 291.552,244.800 291.394 C 246.230 291.235,248.036 290.783,248.813 290.389 C 249.590 289.995,251.288 289.476,252.587 289.236 C 253.886 288.996,255.320 288.459,255.774 288.043 C 256.228 287.627,257.230 287.157,258.000 286.999 C 258.770 286.840,259.670 286.478,260.000 286.193 C 260.330 285.908,261.410 285.462,262.400 285.201 C 263.390 284.941,264.560 284.408,265.000 284.017 C 265.440 283.625,266.340 283.179,267.000 283.024 C 267.660 282.869,268.650 282.326,269.200 281.816 C 269.750 281.307,270.650 280.755,271.200 280.590 C 271.750 280.425,272.629 279.955,273.154 279.545 C 273.679 279.135,274.338 278.800,274.620 278.800 C 274.902 278.800,275.552 278.434,276.066 277.986 C 276.979 277.191,278.160 276.491,281.400 274.827 C 282.280 274.375,283.810 273.374,284.800 272.602 C 285.790 271.831,287.050 270.979,287.600 270.711 C 288.150 270.442,289.735 269.272,291.123 268.111 C 292.510 266.950,293.834 266.000,294.065 266.000 C 294.296 266.000,295.019 265.550,295.673 265.000 C 296.656 264.173,296.731 264.000,296.106 264.000 C 295.691 264.000,294.962 264.363,294.486 264.806 M306.644 282.015 C 306.502 282.904,306.139 283.725,305.838 283.841 C 305.536 283.957,305.056 284.895,304.771 285.926 C 304.485 286.957,303.926 288.340,303.527 289.000 C 303.129 289.660,302.802 290.629,302.801 291.154 L 302.800 292.108 303.604 291.085 C 304.047 290.523,304.589 289.113,304.809 287.952 C 305.029 286.791,305.588 285.438,306.051 284.946 C 306.548 284.417,306.977 283.301,307.098 282.225 C 307.353 279.969,306.997 279.805,306.644 282.015 M302.400 292.874 C 302.400 293.135,302.060 293.720,301.644 294.174 C 301.228 294.628,300.682 295.983,300.430 297.184 C 300.178 298.385,299.732 299.645,299.437 299.984 C 299.143 300.323,298.683 301.536,298.416 302.680 C 298.148 303.824,297.685 304.963,297.387 305.211 C 297.088 305.459,296.644 306.624,296.400 307.800 C 296.156 308.976,295.705 310.147,295.398 310.401 C 295.092 310.656,294.630 311.525,294.371 312.332 C 294.113 313.139,293.586 314.160,293.200 314.600 C 292.814 315.040,292.371 316.120,292.216 317.000 C 292.060 317.880,291.588 319.161,291.166 319.847 C 290.253 321.334,290.211 321.648,290.963 321.359 C 291.617 321.108,292.233 319.641,292.592 317.479 C 292.731 316.642,293.096 315.861,293.403 315.744 C 293.710 315.626,294.178 314.870,294.444 314.065 C 294.709 313.259,295.278 312.124,295.708 311.542 C 296.137 310.960,296.582 309.655,296.696 308.642 C 296.811 307.629,297.070 306.800,297.272 306.800 C 297.750 306.800,298.800 304.284,298.800 303.139 C 298.800 302.651,299.173 301.855,299.629 301.370 C 300.135 300.831,300.572 299.640,300.753 298.308 C 300.940 296.932,301.371 295.783,301.924 295.189 C 302.686 294.371,303.164 292.400,302.600 292.400 C 302.490 292.400,302.400 292.613,302.400 292.874 M290.000 322.946 C 290.000 323.466,289.638 324.352,289.196 324.914 C 288.755 325.475,288.283 326.535,288.148 327.268 C 288.013 328.000,287.464 329.370,286.928 330.311 C 286.236 331.526,285.998 332.454,286.109 333.511 L 286.266 335.000 286.333 333.464 C 286.377 332.454,286.682 331.700,287.225 331.260 C 287.740 330.843,288.138 329.917,288.285 328.796 C 288.417 327.781,288.928 326.508,289.460 325.869 C 290.283 324.880,290.834 322.000,290.200 322.000 C 290.090 322.000,290.000 322.426,290.000 322.946 M107.131 330.670 C 106.763 330.767,106.173 331.286,105.821 331.823 C 105.470 332.361,104.912 332.800,104.582 332.800 C 104.253 332.800,103.778 333.250,103.527 333.800 C 103.237 334.438,102.744 334.800,102.166 334.800 C 101.669 334.800,100.753 335.225,100.131 335.745 C 99.509 336.265,98.614 336.811,98.143 336.959 C 97.672 337.106,97.194 337.581,97.081 338.013 C 96.951 338.511,96.530 338.802,95.937 338.805 C 94.313 338.815,93.235 339.261,92.993 340.023 C 92.864 340.428,92.408 340.870,91.979 341.007 C 90.585 341.449,90.195 342.773,91.171 343.749 L 92.022 344.600 186.785 344.600 L 281.547 344.600 282.734 343.463 C 283.567 342.665,284.003 341.775,284.198 340.475 C 284.367 339.344,284.773 338.414,285.238 338.088 C 285.729 337.744,285.991 337.101,285.975 336.277 C 285.950 335.028,285.941 335.022,285.554 335.992 C 285.336 336.537,284.917 337.257,284.622 337.592 C 284.328 337.926,283.966 338.938,283.819 339.839 C 283.621 341.046,283.130 341.865,281.962 342.939 L 280.373 344.400 187.286 344.360 C 136.089 344.338,93.767 344.199,93.238 344.051 C 90.667 343.332,92.428 340.162,95.920 339.222 C 96.799 338.985,97.618 338.529,97.741 338.208 C 97.865 337.888,98.558 337.340,99.283 336.991 C 101.806 335.776,103.233 334.882,104.141 333.944 C 104.644 333.425,105.664 332.640,106.408 332.200 C 109.663 330.275,109.498 330.407,108.600 330.452 C 108.160 330.475,107.499 330.572,107.131 330.670 " stroke="none" fill="#b45cbc" fill-rule="evenodd"></path></g></svg>